<?xml version="1.0" encoding="UTF-8"?>
<svg id="Layer_2" data-name="Layer 2" xmlns="http://www.w3.org/2000/svg" viewBox="0 0 453.68 225.88">
  <defs>
    <style>
      .cls-1, .cls-2 {
        isolation: isolate;
      }

      .cls-3 {
        stroke-width: 0px;
      }

      .cls-3, .cls-2 {
        fill: #6d28d9;
      }

      .cls-2 {
        font-family: MicrosoftYaHei, 'Microsoft YaHei';
        font-size: 108.69px;
      }
    </style>
  </defs>
  <g id="Layer_2-2" data-name="Layer 2">
    <g id="Layer_1-2" data-name="Layer 1-2">
      <g class="cls-1">
        <text class="cls-2" transform="translate(0 181.27) scale(.92 1)"><tspan x="0" y="0">DevLa</tspan></text>
      </g>
      <path class="cls-3" d="M405.09,94.32V9.1h.04c1.15,0,2.16-.51,2.92-1.34s1.2-1.96,1.2-3.22c0-2.52-1.84-4.54-4.12-4.54h-51.73c-1.15,0-2.16.49-2.92,1.32-.75.81-1.2,1.94-1.2,3.22,0,2.5,1.84,4.56,4.12,4.56h.53v85.64c-27.69,9.73-47.35,34.43-47.35,63.35,0,37.44,32.93,67.79,73.53,67.79s73.57-30.35,73.57-67.79c0-29.35-20.27-54.33-48.59-63.76h0ZM380.13,216.04c-34.73,0-62.88-25.94-62.88-57.96,0-27.41,20.65-50.38,48.38-56.4V9.1h27.73v92.32c28.37,5.61,49.64,28.84,49.64,56.66,0,32.02-28.14,57.96-62.88,57.96h.01Z"/>
      <path class="cls-3" d="M366.54,139.17l-29.63,15.23.21.11,17.24,8.87c-1.02.06-2.03.15-3.09.28-3.6.41-6.93,1.11-9.98,1.96l-1.79-.92-12.78-6.57v-7.44l39.82-20.41v8.89h0Z"/>
      <path class="cls-3" d="M433.54,150.69v7.44l-12.82,6.57-1.69.87h-.02c-4.03-.9-8.57-1.64-13.44-2.01l17.79-9.15-10.45-5.35-19.22-9.88v-8.89l39.85,20.41h0Z"/>
      <path class="cls-3" d="M389.67,120.91l-6.76,37.05-1.22,6.74-.08.38c-1.32.24-2.64.53-3.92.81h-.02c-1-.3-2.13-.6-3.37-.88l.06-.3.43-2.22,7.57-41.57h7.31Z"/>
      <path class="cls-3" d="M435.63,172.71c-7.06,22.74-29.24,39.33-55.48,39.33s-48.34-16.51-55.48-39.16c-.02-.06-.04-.11-.06-.17,3.61-2.15,9.28-5.06,16.68-7.1l5.21,2.65,2.54,1.32c-.23.02-.45.02-.68.04l.73-.02,17.43,8.92v-8.9l-1.62-.81-2.88-1.49-5.12-2.64-2.56-1.32c8.09-.56,14.95.43,19.95,1.62l-.13.77-.47,2.62-.45,2.6-2.73,14.78h7.34l2.54-14.04.49-2.67.19-1.04.53-2.94c3.26-.62,6.53-1.11,9.6-1.41,4.91-.47,9.75-.45,14.33-.11l-2.22,1.15-4.78,2.45-4.86,2.48v8.9l24.12-12.35,1.2-.62h.02c9.96,2.26,16.64,5.61,16.53,7.15h.09Z"/>
    </g>
  </g>
</svg>